<svg xmlns="http://www.w3.org/2000/svg" viewBox="0 0 300 380" preserveAspectRatio="none">
  <ellipse cx="150" cy="250" rx="110" ry="60" fill="#e0f2fe" opacity="0.46"/>
  <path fill="#ffffff" d="M25 230c0-22 15-42 38-48 8-39 41-69 84-69 34 0 63 18 79 45 30 1 54 26 54 56 0 31-25 56-56 56H82c-31 0-57-25-57-56 0-3 0-6 0-10Z"/>
  <path fill="#f8fbff" d="M106 131c10-7 25-11 41-11 24 0 47 9 63 24-14-5-30-8-47-8-21 0-40 5-57 15Z" opacity="0.9"/>
  <path fill="#eef6ff" d="M58 205c18-12 40-19 65-19 14 0 27 2 39 5-14 2-29 6-44 12-20 7-40 8-60 2Z" opacity="0.7"/>
</svg>
