<svg xmlns="http://www.w3.org/2000/svg" viewBox="0 0 512 512" role="img" aria-labelledby="title desc">
  <title id="title">The Great Class Quest circular logo</title>
  <desc id="desc">A circular sky-blue classroom quest logo with a golden star, soft cloud, and subtle quest path.</desc>
  <defs>
    <clipPath id="badgeClip">
      <circle cx="256" cy="256" r="220"/>
    </clipPath>
    <linearGradient id="sky" x1="140" y1="50" x2="365" y2="458" gradientUnits="userSpaceOnUse">
      <stop offset="0" stop-color="#a8e0ff"/>
      <stop offset=".48" stop-color="#8ee3f8"/>
      <stop offset="1" stop-color="#d6f9e3"/>
    </linearGradient>
    <linearGradient id="star" x1="181" y1="110" x2="329" y2="334" gradientUnits="userSpaceOnUse">
      <stop offset="0" stop-color="#fff7ad"/>
      <stop offset=".5" stop-color="#fbbf24"/>
      <stop offset="1" stop-color="#f59e0b"/>
    </linearGradient>
    <filter id="softShadow" x="-20%" y="-20%" width="140%" height="145%">
      <feDropShadow dx="0" dy="16" stdDeviation="17" flood-color="#0f4c81" flood-opacity=".2"/>
    </filter>
    <filter id="glow" x="-50%" y="-50%" width="200%" height="200%">
      <feGaussianBlur stdDeviation="5" result="blur"/>
      <feMerge>
        <feMergeNode in="blur"/>
        <feMergeNode in="SourceGraphic"/>
      </feMerge>
    </filter>
  </defs>

  <circle cx="256" cy="256" r="236" fill="#ffffff"/>
  <circle cx="256" cy="256" r="220" fill="url(#sky)" filter="url(#softShadow)"/>

  <g clip-path="url(#badgeClip)">
    <circle cx="160" cy="116" r="58" fill="#ffffff" opacity=".28"/>
    <circle cx="352" cy="122" r="82" fill="#ffffff" opacity=".18"/>
    <circle cx="350" cy="132" r="58" fill="#fde047" opacity=".18"/>
    <circle cx="350" cy="132" r="92" fill="#fbbf24" opacity=".08"/>

    <g opacity=".42">
      <path d="M28 238c20-27 57-36 93-20 24-31 76-31 100 1 34-12 70-2 88 26 6 10-1 23-14 23H43c-14 0-22-18-15-30z" fill="#ffffff" opacity=".34"/>
      <path d="M278 226c19-28 56-38 92-22 23-30 74-30 97 0 28-8 57 1 73 24 8 12-1 28-16 28H293c-14 0-22-18-15-30z" fill="#ffffff" opacity=".3"/>
      <path d="M87 303c18-30 52-42 87-28 22-34 74-34 96 1 37-17 80-6 101 27 7 11-1 25-15 25H102c-14 0-22-14-15-25z" fill="#ffffff"/>
      <path d="M196 286c19-31 54-43 91-29 23-34 78-34 101 1 35-12 70 0 89 31 7 12-1 27-16 27H211c-15 0-23-17-15-30z" fill="#ffffff" opacity=".66"/>
      <path d="M43 350c25-35 77-49 128-29 34-43 112-43 145 1 55-20 113-7 144 28 12 14 2 35-17 35H60c-19 0-29-20-17-35z" fill="#ffffff" opacity=".5"/>
      <path d="M146 401c54 13 166 13 220 0" fill="none" stroke="#ffffff" stroke-width="17" stroke-linecap="round" opacity=".24"/>
      <path d="M112 329c67 23 216 24 288-2" fill="none" stroke="#bae6fd" stroke-width="9" stroke-linecap="round" opacity=".42"/>
      <path d="M76 379c89 22 267 22 357-1" fill="none" stroke="#e0f2fe" stroke-width="12" stroke-linecap="round" opacity=".46"/>
    </g>

    <path d="M95 256a161 161 0 0 1 322 0" fill="none" stroke="#ffffff" stroke-width="8" stroke-linecap="round" opacity=".35"/>
    <path d="M79 256a177 177 0 0 1 354 0" fill="none" stroke="#fbbf24" stroke-width="8" stroke-linecap="round" opacity=".45" stroke-dasharray="1 24"/>

    <g fill="#ffffff" opacity=".72">
      <path d="M128 176l5 13 14 1-11 8 4 14-12-8-12 8 4-14-11-8 14-1z"/>
      <path d="M388 196l4 10 11 1-9 6 3 11-9-6-9 6 3-11-9-6 11-1z" opacity=".62"/>
      <path d="M333 82l3 8 9 1-7 5 3 9-8-5-8 5 3-9-7-5 9-1z" opacity=".48"/>
    </g>

    <g filter="url(#softShadow)">
      <path d="M256 91l40 108 115 4-91 70 32 111-96-64-97 64 33-111-91-70 115-4z" fill="url(#star)" stroke="#fff7ad" stroke-width="12" stroke-linejoin="round" filter="url(#glow)"/>
      <path d="M256 145l20 54 58 2-46 35 17 55-49-32-49 32 17-55-46-35 58-2z" fill="#fff7ad" opacity=".9"/>
    </g>

    <path d="M126 389c69 30 197 26 269-32" fill="none" stroke="#22d3ee" stroke-width="15" stroke-linecap="round" stroke-dasharray="1 31"/>
    <circle cx="398" cy="356" r="13" fill="#4ade80" stroke="#ffffff" stroke-width="7"/>
  </g>

  <circle cx="256" cy="256" r="205" fill="none" stroke="#ffffff" stroke-width="14" opacity=".75"/>
</svg>
